<svg id="Layer_1" data-name="Layer 1" xmlns="http://www.w3.org/2000/svg" viewBox="0 0 160 100"><defs><style>.cls-3{fill-rule:evenodd;fill:#f79c34}</style></defs><path d="M8 99a7.07 7.07 0 0 1-7-7V8a7.07 7.07 0 0 1 7-7h144a7.07 7.07 0 0 1 7 7v84a7.07 7.07 0 0 1-7 7Z" style="fill-rule:evenodd;fill:#fff"/><path d="M152 2a6 6 0 0 1 6 6v84a6 6 0 0 1-6 6H8a6 6 0 0 1-6-6V8a6 6 0 0 1 6-6Zm0-2H8a8 8 0 0 0-8 8v84a8 8 0 0 0 8 8h144a8 8 0 0 0 8-8V8a8 8 0 0 0-8-8Z" style="fill:#e6e6e6"/><path class="cls-3" d="M65.93 60.23C61 63.87 53.85 65.8 47.7 65.8a33 33 0 0 1-22.28-8.5c-.46-.41-.05-1 .5-.66a44.87 44.87 0 0 0 22.29 5.91 44.45 44.45 0 0 0 17-3.47c.84-.36 1.54.54.72 1.15Z"/><path class="cls-3" d="M68 57.88c-.63-.8-4.17-.38-5.76-.19-.48.06-.56-.36-.13-.67 2.83-2 7.45-1.41 8-.74S70 61.59 67.3 63.8c-.4.34-.79.16-.61-.29.6-1.51 1.93-4.82 1.31-5.63Z"/><path d="M62.34 43v-1.91a.48.48 0 0 1 .49-.49h8.63a.48.48 0 0 1 .5.49v1.65c0 .28-.24.64-.65 1.21l-4.47 6.39a9.53 9.53 0 0 1 4.92 1.06.88.88 0 0 1 .46.75v2.06a.47.47 0 0 1-.64.44 9.92 9.92 0 0 0-9.12 0c-.3.16-.61-.16-.61-.44v-2a2.27 2.27 0 0 1 .32-1.32l5.18-7.44h-4.51a.47.47 0 0 1-.5-.45Zm-31.5 12.05h-2.63a.49.49 0 0 1-.47-.44V41.12a.48.48 0 0 1 .5-.48h2.46a.49.49 0 0 1 .48.45v1.76h.05a3.46 3.46 0 0 1 3.45-2.5c1.65 0 2.68.8 3.41 2.5a3.88 3.88 0 0 1 6.67-1c.84 1.14.67 2.78.67 4.23v8.51a.49.49 0 0 1-.5.48h-2.64a.49.49 0 0 1-.47-.48v-7.17a17.7 17.7 0 0 0-.07-2.53 1.38 1.38 0 0 0-1.55-1.16 1.75 1.75 0 0 0-1.57 1.11 8.12 8.12 0 0 0-.24 2.58v7.15a.5.5 0 0 1-.51.48h-2.62a.49.49 0 0 1-.48-.48v-7.15c0-1.5.25-3.72-1.62-3.72s-1.81 2.16-1.81 3.72v7.15a.5.5 0 0 1-.51.48Zm48.58-11.94c-1.94 0-2.06 2.63-2.06 4.28s0 5.16 2 5.16 2.14-2.83 2.14-4.56a12.61 12.61 0 0 0-.39-3.58 1.65 1.65 0 0 0-1.69-1.3Zm0-2.76c3.9 0 6 3.35 6 7.61s-2.33 7.38-6 7.38-5.94-3.34-5.94-7.52 2.11-7.47 5.91-7.47Zm11.04 14.7h-2.62a.49.49 0 0 1-.47-.48V41.08a.49.49 0 0 1 .5-.44h2.44a.48.48 0 0 1 .46.38v2.06c.74-1.85 1.77-2.73 3.58-2.73a3.46 3.46 0 0 1 3.07 1.59c.69 1.08.69 2.9.69 4.2v8.49a.5.5 0 0 1-.51.42H95a.49.49 0 0 1-.47-.42v-7.32c0-1.48.17-3.64-1.64-3.64a1.72 1.72 0 0 0-1.52 1.08 6 6 0 0 0-.37 2.56v7.26a.5.5 0 0 1-.54.48ZM58.1 55a.56.56 0 0 1-.62.06A6.37 6.37 0 0 1 56 53.33a5.21 5.21 0 0 1-4.33 1.91 3.73 3.73 0 0 1-3.94-4.1 4.46 4.46 0 0 1 2.81-4.29 17.9 17.9 0 0 1 4.94-.91v-.34a3.45 3.45 0 0 0-.32-1.91 1.77 1.77 0 0 0-1.5-.69 2 2 0 0 0-2.11 1.58.56.56 0 0 1-.46.48l-2.54-.27a.46.46 0 0 1-.39-.55c.57-3 3.29-4 5.77-4h.19A6 6 0 0 1 58 41.53c1.28 1.2 1.15 2.79 1.15 4.52v4.1a3.57 3.57 0 0 0 1 2.43.49.49 0 0 1 0 .7l-2 1.74Zm-2.64-6.41A5.12 5.12 0 0 1 55 51.4a2.11 2.11 0 0 1-1.81 1.19c-1 0-1.6-.76-1.6-1.9 0-2.24 2-2.65 3.91-2.65ZM23.67 55a.56.56 0 0 1-.62.06 6.43 6.43 0 0 1-1.51-1.75 5.2 5.2 0 0 1-4.33 1.91 3.73 3.73 0 0 1-3.93-4.1 4.45 4.45 0 0 1 2.8-4.29 17.9 17.9 0 0 1 4.92-.89v-.34a3.36 3.36 0 0 0-.32-1.91 1.77 1.77 0 0 0-1.46-.69 2 2 0 0 0-2.11 1.58.55.55 0 0 1-.45.48l-2.55-.27a.46.46 0 0 1-.39-.55c.57-3 3.29-4 5.77-4h.19a6 6 0 0 1 3.87 1.31c1.28 1.2 1.15 2.79 1.15 4.52v4.1a3.58 3.58 0 0 0 1 2.43.51.51 0 0 1 0 .7c-.54.45-1.49 1.28-2 1.74ZM21 48.61a5.21 5.21 0 0 1-.49 2.79 2.14 2.14 0 0 1-1.82 1.19c-1 0-1.6-.76-1.6-1.9 0-2.24 2-2.65 3.91-2.65Zm113.07 11.28v-1c0-.28.13-.48.43-.46a6.23 6.23 0 0 0 1.88 0 2.2 2.2 0 0 0 1.54-1.36c.43-1 .71-1.78.89-2.3l-5.46-13.54c-.1-.23-.12-.65.34-.65h1.91a.59.59 0 0 1 .59.46l4 11 3.79-11a.58.58 0 0 1 .59-.46h1.8c.46 0 .43.42.34.65l-5.42 14c-.7 1.85-1.64 4.81-3.74 5.33a5.67 5.67 0 0 1-3.17-.15.62.62 0 0 1-.31-.52Zm-2.55-5.66a.46.46 0 0 1-.46.45h-1.35a.53.53 0 0 1-.53-.45l-.13-.92a8 8 0 0 1-2.2 1.3 5.53 5.53 0 0 1-5-.23 4 4 0 0 1-1.68-3.38 4.14 4.14 0 0 1 1.07-2.9 5.35 5.35 0 0 1 4.1-1.58 12.91 12.91 0 0 1 3.59.48v-1.89c0-1.87-.79-2.69-2.87-2.69a13.88 13.88 0 0 0-4.51.77.41.41 0 0 1-.43-.45v-1.05a.66.66 0 0 1 .45-.57 13.49 13.49 0 0 1 4.75-.92c2.37 0 5.2.54 5.2 4.19Zm-2.59-2.7v-2.78a14.23 14.23 0 0 0-3-.35 3.4 3.4 0 0 0-2.44.78 2.29 2.29 0 0 0-.57 1.58 2.11 2.11 0 0 0 .86 1.85 3.47 3.47 0 0 0 2.78.12 6 6 0 0 0 2.37-1.2Zm-17.28-9.06c3 0 3.81 2.35 3.81 5 0 1.81-.32 3.43-1.26 4.36a3.41 3.41 0 0 1-2.67.88 6.44 6.44 0 0 1-3.47-1.32v-7.65a6.16 6.16 0 0 1 3.59-1.27Zm-4.05 17.9h-1.8a.46.46 0 0 1-.46-.46v-18.8a.46.46 0 0 1 .46-.46h1.38a.51.51 0 0 1 .52.46l.15 1a7.09 7.09 0 0 1 4.54-1.89c4.45 0 5.91 3.66 5.91 7.47 0 4.07-2.23 7.35-6 7.35a6.32 6.32 0 0 1-4.22-1.61v6.49a.47.47 0 0 1-.48.45Z" style="fill:#333e47;fill-rule:evenodd"/></svg>