<svg xmlns="http://www.w3.org/2000/svg" viewBox="0 0 160 100"><path d="M8 99c-3.8 0-7-3.2-7-7V8c0-3.8 3.2-7 7-7h144c3.8 0 7 3.2 7 7v84c0 3.8-3.2 7-7 7H8z" fill-rule="evenodd" clip-rule="evenodd" fill="#fff"/><path d="M152 2c3.3 0 6 2.7 6 6v84c0 3.3-2.7 6-6 6H8c-3.3 0-6-2.7-6-6V8c0-3.3 2.7-6 6-6h144zm0-2H8C3.6 0 0 3.6 0 8v84c0 4.4 3.6 8 8 8h144c4.4 0 8-3.6 8-8V8c0-4.4-3.6-8-8-8z" fill="#e6e6e6"/><path fill="#088b45" d="M140.2 34.7l6.6 12.1-13.9 12z"/><path fill="#f17a21" d="M135.5 34.7l6.6 12.1-13.8 12z"/><path d="M44.3 58c.7-.5 1.1-1 1.3-1.7l2.2-7.2c.2-.7.1-1.2-.3-1.7-.4-.4-.9-.7-1.7-.7.7 0 1.4-.2 2.1-.7.6-.5 1.1-1 1.3-1.7l2.2-7.2c.2-.7.1-1.3-.2-1.7-.4-.5-.9-.7-1.7-.7H20.9l-7.3 24h28.6c.8 0 1.5-.2 2.1-.7M24.7 39.5h18.9c.5.1.9.4 1.2.8.1.3.1.6.1.9v.5l-.1.2-.2.6c-.5 1-1.6 1.8-2.8 2H23.2l1.5-5zm16.9 12.7c-.5 1-1.5 1.7-2.8 1.8H20.3l1.5-4.9h18.8c.7.2 1.2.7 1.4 1.3v.7l-.4 1.1zm39.8-17.4l-2.9 9.6H57.9l2.8-9.6h-5.1l-7.1 23.9h5.1l2.9-9.6h20.6l-2.9 9.6h5.2l7.1-23.9zM88 58.7h-5.1L90 34.9h5.2zm43.2-23.8l-21.5 16.7-7.5-11.5-3.4-5.2h-.1L97 40.3l-5.5 18.4h5.2l3.8-12.9 8.2 12.9 13.6-11.4-3.4 11.4h5.1l5-16.8 2.2-7zm-118 30.3l.9-3.5h1.6c.1 0 .2.1.3.1.1.1.2.2.2.3v.4c0 .2-.1.3-.3.5-.1.1-.3.2-.5.3.2 0 .4.1.5.3.1.2.1.4.1.6 0 .1-.1.3-.2.4l-.3.3c-.1.1-.3.2-.5.2s-.5.1-.8.1h-1zm.8-.5h.7c.1 0 .2 0 .3-.1.1 0 .2-.1.2-.2.1-.1.1-.2.1-.3v-.3c0-.1-.1-.1-.2-.2-.1 0-.1 0-.2-.1h-.7l-.2 1.2zm.4-1.6h.3c.3 0 .5 0 .7-.1.1-.1.2-.2.3-.4.1-.2 0-.3-.1-.4-.1-.1-.3-.1-.7-.1h-.3l-.2 1zm3.8 2.1l1-3.6h.6l-.3 1.3h2l.3-1.3h.7l-.9 3.6h-.7l.4-1.8h-2l-.4 1.8zm8.7 0l-.2-.9h-1.6l-.7.9h-.7l2.9-3.7 1 3.7h-.7zm-1.5-1.4h1.1l-.1-.8v-.4c0 .1-.1.1-.1.2s-.1.1-.1.2l-.8.8zm5.3-.2l-.4 1.6h-.6l.9-3.5h1.5c.1 0 .3.1.3.2.1.1.2.2.2.3v.4c-.1.3-.2.5-.4.7-.2.2-.5.3-.8.3l1 1.6h-.7l-1-1.6zm.2-.5h.1c.3 0 .6 0 .7-.1.1-.1.2-.2.3-.4.1-.2 0-.3-.1-.4-.1-.1-.3-.1-.7-.1h-.1l-.2 1zm6.4 2.1l-.2-.9h-1.6l-.7.9h-.7l2.9-3.7 1 3.7h-.7zm-1.5-1.4H37l-.2-.8v-.4c0 .1-.1.1-.1.2s-.1.1-.1.2l-.8.8zm6.1-1.7l-.8 3.1h-.7l.8-3.1h-1.1l.2-.5h2.8l-.1.5zm5.9 3.1l1-3.6h.6l-.9 3.6zm3.4 0l1-3.7 2 2.2.2.2.2.2.6-2.4h.6l-1 3.7-2.1-2.2-.2-.2c0-.1-.1-.1-.1-.2l-.6 2.5h-.6zm8.4-3.1l-.8 3.1h-.7l.8-3.1h-1.1l.2-.5h2.8l-.2.5zm2.5 3.1l.9-3.6h2.3l-.2.5h-1.6l-.2.9h1.6l-.1.5h-1.6l-.3 1.1h1.6l-.2.6zm5.8-1.6l-.4 1.6h-.6l.9-3.5h1.5c.1 0 .3.1.3.2.1.1.2.2.2.3v.4c-.1.3-.2.5-.4.7-.2.2-.5.3-.8.3l1 1.6h-.7l-1-1.6zm.1-.5h.1c.3 0 .6 0 .7-.1.1-.1.2-.2.3-.4.1-.2 0-.3-.1-.4-.1-.1-.3-.1-.7-.1h-.1l-.2 1zm3.7 2.1l1-3.6h2.2l-.1.5h-1.6l-.2.9h1.6l-.2.5h-1.6l-.4 1.7zm7.2 0l-.2-.9h-1.6l-.7.9h-.7l2.9-3.7 1 3.7h-.7zm-1.4-1.4h1.1l-.2-.8v-.4c0 .1-.1.1-.1.2s-.1.1-.1.2l-.7.8zm8.1-1.3c-.2-.1-.3-.2-.5-.3-.2-.1-.4-.1-.6-.1-.4 0-.8.1-1.2.4-.3.2-.6.6-.7 1-.1.4 0 .7.2.9.2.2.5.4.9.4.2 0 .5 0 .7-.1.2-.1.5-.2.7-.3l-.2.6c-.2.1-.4.2-.6.2-.2.1-.5.1-.7.1-.3 0-.6 0-.8-.1-.2-.1-.4-.2-.6-.4-.2-.2-.3-.4-.3-.6v-.7c.1-.3.2-.5.3-.7l.6-.6c.2-.2.5-.3.8-.4.3-.1.6-.1.9-.1.2 0 .5 0 .7.1l.6.3-.2.4zm1.8 2.7l.9-3.6h2.3l-.1.5h-1.6l-.3.9h1.7l-.2.5h-1.6l-.3 1.1h1.6l-.1.6zm8.2 0l.9-3.6h2.3l-.1.5h-1.6l-.3.9h1.6l-.1.5h-1.6l-.4 1.7zm9.3-1.8c-.1.2-.2.5-.3.7l-.6.6c-.3.2-.5.3-.8.4-.3.1-.6.1-.9.1-.3 0-.6 0-.8-.1-.2-.1-.4-.2-.6-.4-.2-.2-.3-.4-.3-.6-.1-.2 0-.5 0-.7.1-.3.2-.5.3-.7l.6-.6c.3-.2.5-.3.8-.4.3-.1.6-.1.9-.1.3 0 .6 0 .8.1.2.1.4.2.6.4.2.2.3.4.3.6.1.2.1.4 0 .7m-.6 0c0-.2.1-.3 0-.5 0-.2-.1-.3-.2-.4-.1-.1-.2-.2-.4-.3-.2-.1-.3-.1-.5-.1s-.4 0-.6.1l-.6.3c-.2.1-.3.3-.4.4-.1.2-.2.3-.2.5s-.1.3 0 .5c0 .2.1.3.2.4.1.1.2.2.4.3.2.1.3.1.5.1s.4 0 .6-.1l.6-.3c.2-.1.3-.3.4-.4 0-.2.1-.3.2-.5m3.7.2l-.4 1.6h-.6l.9-3.5h1.5c.1 0 .3.1.3.2.1.1.2.2.2.3v.4c-.1.3-.2.5-.4.7-.2.2-.5.3-.8.3l1 1.6h-.7l-1-1.6zm.1-.5h.1c.4 0 .6 0 .7-.1.1-.1.2-.2.3-.4 0-.2 0-.3-.1-.4-.1-.1-.3-.1-.7-.1h-.1l-.2 1zm11 .3v-.5c0 .1-.1.2-.1.2-.1.1-.1.2-.2.2l-1.6 1.9-.6-1.9c0-.1 0-.2-.1-.2v-.2c0 .1-.1.2-.1.2 0 .1-.1.2-.1.3l-.9 1.7h-.6l1.9-3.7.6 2.2v.2c0 .1 0 .2.1.3.1-.1.2-.2.3-.4l.1-.1 1.8-2.2v3.7h-.6v-1.7zm7.5 0c-.1.2-.2.5-.3.7l-.6.6c-.3.2-.5.3-.8.4-.3.1-.6.1-.9.1-.3 0-.6 0-.8-.1-.2-.1-.4-.2-.6-.4-.2-.2-.3-.4-.3-.6v-.7c.1-.3.2-.5.3-.7l.6-.6c.3-.2.5-.3.8-.4.3-.1.6-.1.9-.1.3 0 .6 0 .8.1.2.1.4.2.6.4.2.2.3.4.3.6v.7m-.7 0c0-.2.1-.3 0-.5 0-.2-.1-.3-.2-.4-.1-.1-.2-.2-.4-.3-.2-.1-.3-.1-.5-.1s-.4 0-.6.1l-.6.3c-.2.1-.3.3-.4.4-.1.2-.2.3-.2.5s-.1.3 0 .5c0 .2.1.3.2.4.1.1.2.2.4.3.2.1.3.1.5.1s.4 0 .6-.1l.6-.3c.2-.1.3-.3.4-.4 0-.2.1-.3.2-.5m2.7 1.8l1-3.7 2 2.2.2.2.2.2.6-2.4h.6l-1 3.7-2.1-2.2-.2-.2c0-.1-.1-.1-.1-.2l-.6 2.5h-.6zm6.3 0l.9-3.6h2.3l-.2.5h-1.6l-.2.9h1.6l-.1.5H136l-.3 1.1h1.6l-.2.6zm5.6 0l.4-1.6-.9-1.9h.7l.5 1.2v.3c0-.1.1-.1.1-.2l.1-.1 1.2-1.2h.7l-1.9 1.9-.4 1.6h-.5z" fill="#6e6f71"/></svg>