<svg data-name="Layer 1" xmlns="http://www.w3.org/2000/svg" viewBox="0 0 160 100"><path d="M8 99a7.07 7.07 0 0 1-7-7V8a7.07 7.07 0 0 1 7-7h144a7.07 7.07 0 0 1 7 7v84a7.07 7.07 0 0 1-7 7Z" style="fill-rule:evenodd;fill:#fff"/><path d="M152 2a6 6 0 0 1 6 6v84a6 6 0 0 1-6 6H8a6 6 0 0 1-6-6V8a6 6 0 0 1 6-6Zm0-2H8a8 8 0 0 0-8 8v84a8 8 0 0 0 8 8h144a8 8 0 0 0 8-8V8a8 8 0 0 0-8-8Z" style="fill:#e6e6e6"/><path d="M76.4 34.41v13.36h8.24a6.52 6.52 0 0 0 4.86-2 6.7 6.7 0 0 0-4.86-11.38Zm0 18.06V68h-4.92V29.71h13A11.8 11.8 0 0 1 93 33a11 11 0 0 1 0 16.2 11.75 11.75 0 0 1-8.45 3.26H76.4ZM101.48 60a3.9 3.9 0 0 0 1.63 3.2 6 6 0 0 0 3.82 1.28 7.85 7.85 0 0 0 5.54-2.29 7.23 7.23 0 0 0 2.43-5.4 10.11 10.11 0 0 0-6.42-1.81 8.32 8.32 0 0 0-5 1.44 4.27 4.27 0 0 0-2 3.58m6.37-19q5.45 0 8.61 2.91a10.33 10.33 0 0 1 3.15 8V68h-4.7v-3.67h-.22a9.38 9.38 0 0 1-8.13 4.48 10.56 10.56 0 0 1-7.24-2.56 8.17 8.17 0 0 1-2.92-6.41 7.74 7.74 0 0 1 3.08-6.46 12.91 12.91 0 0 1 8.21-2.38 14.52 14.52 0 0 1 7.21 1.6v-1.15a5.59 5.59 0 0 0-2-4.35 6.9 6.9 0 0 0-4.76-1.79 7.51 7.51 0 0 0-6.52 3.47l-4.34-2.73q3.59-5.11 10.6-5.12m38.77.85L130.2 79.5h-5.08l6.09-13.2-10.8-24.52h5.35l7.81 18.81h.1l7.6-18.81Z" style="fill:#5f6368;fill-rule:evenodd"/><path d="M56.52 49.13a25.83 25.83 0 0 0-.38-4.47H35.39v8.46h11.88a10.16 10.16 0 0 1-4.39 6.68v5.5H50c4.16-3.83 6.55-9.49 6.55-16.17" style="fill:#4285f4;fill-rule:evenodd"/><path d="M35.39 70.6A21.05 21.05 0 0 0 50 65.3l-7.09-5.5a13.34 13.34 0 0 1-19.85-7h-7.3v5.66a22 22 0 0 0 19.63 12.15" style="fill:#34a853;fill-rule:evenodd"/><path d="M23 52.83a13.3 13.3 0 0 1 0-8.41v-5.66h-7.3a21.88 21.88 0 0 0 0 19.73l7.3-5.66Z" style="fill:#fabb05;fill-rule:evenodd"/><path d="M35.39 35.35a12 12 0 0 1 8.44 3.29l6.28-6.28a21.16 21.16 0 0 0-14.72-5.72 22 22 0 0 0-19.66 12.12L23 44.42a13.15 13.15 0 0 1 12.35-9.07" style="fill:#e94235;fill-rule:evenodd"/></svg>