<svg version="1.1" id="Layer_1" xmlns="http://www.w3.org/2000/svg" x="0" y="0" viewBox="0 0 160 100" xml:space="preserve"><style>.st2{fill:#17baed}.st3{fill:#223368}</style><path d="M8 99c-3.8 0-7-3.2-7-7V8c0-3.8 3.2-7 7-7h144c3.8 0 7 3.2 7 7v84c0 3.8-3.2 7-7 7H8z" fill-rule="evenodd" clip-rule="evenodd" fill="#fff"/><path d="M152 2c3.3 0 6 2.7 6 6v84c0 3.3-2.7 6-6 6H8c-3.3 0-6-2.7-6-6V8c0-3.3 2.7-6 6-6h144zm0-2H8C3.6 0 0 3.6 0 8v84c0 4.4 3.6 8 8 8h144c4.4 0 8-3.6 8-8V8c0-4.4-3.6-8-8-8z" fill="#e6e6e6"/><g id="XMLID_97_"><g id="XMLID_100_"><path id="XMLID_96_" class="st2" d="M146 41.5c-1.2-3.5-4.5-5.9-8.4-5.9h-.1c-2.5 0-4.8 1-6.4 2.7-1.6-1.7-3.9-2.7-6.4-2.7h-.1c-2.2 0-4.2.8-5.8 2.1V37c-.1-.7-.6-1.2-1.3-1.2h-5.9c-.7 0-1.3.6-1.3 1.3v32.2c0 .7.6 1.3 1.3 1.3h5.9c.7 0 1.2-.5 1.3-1.1V46.2c.1-1 .9-1.9 2-2h1.1c.5 0 .9.2 1.3.5.5.4.8 1 .8 1.7v23c0 .7.6 1.3 1.3 1.3h5.9c.7 0 1.3-.6 1.3-1.3V46.3c0-.8.3-1.4 1-1.9.3-.2.7-.3 1.1-.4h1.1c1.3.1 2.1 1.1 2.1 2.2v23c0 .7.6 1.3 1.3 1.3h5.9c.7 0 1.3-.6 1.3-1.3V44.6c.2-1.7 0-2.4-.3-3.1"/><path id="XMLID_95_" class="st2" d="M105.9 35.9h-3.4v-5.5c0-.7-.5-1.2-1.2-1.2h-.2c-3.8 1-3 6.2-9.9 6.7h-1c-.6.1-1 .6-1 1.3v5.9c0 .7.6 1.3 1.3 1.3h3.6v25.1c0 .7.6 1.3 1.3 1.3h5.9c.7 0 1.3-.6 1.3-1.3V44.4h3.3c.7 0 1.3-.6 1.3-1.3v-5.9c0-.7-.6-1.3-1.3-1.3"/><path id="XMLID_94_" class="st3" d="M84.6 35.9h-5.9c-.7 0-1.3.6-1.3 1.3v12.3c0 .8-.6 1.4-1.4 1.4h-2.5c-.8 0-1.4-.6-1.4-1.4V37.3c0-.7-.6-1.3-1.3-1.3h-5.9c-.7 0-1.3.6-1.3 1.3v13.4c0 5.1 3.6 8.7 8.7 8.7h3.9c.7.1 1.2.7 1.2 1.4s-.5 1.3-1.2 1.4h-8.8c-.7 0-1.3.6-1.3 1.3v5.9c0 .7.6 1.3 1.3 1.3h9.7c5.1 0 8.7-3.6 8.7-8.7V37.2c.1-.7-.5-1.3-1.2-1.3"/><path id="XMLID_188_" class="st3" d="M27.8 35.9h-13c-.7 0-1.3.6-1.3 1.3v32.2c0 .7.5 1.3 1.2 1.3h6c.7 0 1.3-.6 1.3-1.3v-9h5.7c4.7 0 8-3.3 8-8.1v-8.4c.1-4.7-3.2-8-7.9-8m-.6 10.8v3.7c0 .8-.6 1.4-1.4 1.4H22v-7.3h3.8c.8 0 1.4.6 1.4 1.4v.8z"/><path id="XMLID_185_" class="st3" d="M50.9 35.9h-8.2c-.7 0-1.3.6-1.3 1.2v5.6c0 .7.6 1.3 1.4 1.3h7.8c.6.1 1.1.5 1.2 1.3v.7c-.1.7-.6 1.2-1.1 1.2h-3.9c-5.2 0-8.8 3.4-8.8 8.2v6.9c0 4.8 3.2 8.2 8.3 8.2H57c1.9 0 3.5-1.5 3.5-3.3V44.8c-.1-5.5-2.9-8.9-9.6-8.9m.9 24.7v1.1c0 .1 0 .1-.1.2-.2.5-.7.9-1.3.9H48c-.8 0-1.4-.6-1.4-1.3v-5c0-.7.6-1.3 1.4-1.3h2.5c.8 0 1.4.6 1.4 1.3v4.1z"/></g></g></svg>