<svg data-name="Layer 1" xmlns="http://www.w3.org/2000/svg" viewBox="0 0 160 100"><path d="M8 99a7.07 7.07 0 0 1-7-7V8a7.07 7.07 0 0 1 7-7h144a7.07 7.07 0 0 1 7 7v84a7.07 7.07 0 0 1-7 7Z" style="fill-rule:evenodd;fill:#fff"/><path d="M152 2a6 6 0 0 1 6 6v84a6 6 0 0 1-6 6H8a6 6 0 0 1-6-6V8a6 6 0 0 1 6-6Zm0-2H8a8 8 0 0 0-8 8v84a8 8 0 0 0 8 8h144a8 8 0 0 0 8-8V8a8 8 0 0 0-8-8Z" style="fill:#e6e6e6"/><circle cx="80" cy="50" r="35.78" style="fill:#5f259f"/><path d="M96.24 40.66a2.65 2.65 0 0 0-2.6-2.6h-4.8l-11-12.59a4.05 4.05 0 0 0-4.2-1.2l-3.8 1.2a.89.89 0 0 0-.4 1.4l12 11.39H63.26a.94.94 0 0 0-1 1v2a2.65 2.65 0 0 0 2.6 2.6h2.8v9.59c0 7.2 3.79 11.4 10.19 11.4a13.84 13.84 0 0 0 5.6-1v6.39a3.16 3.16 0 0 0 3.19 3.2h2.8a1.29 1.29 0 0 0 1.2-1.2V43.66h4.6a.94.94 0 0 0 1-1ZM83.45 57.85a9.53 9.53 0 0 1-4 .8c-3.2 0-4.8-1.6-4.8-5.2v-9.59h8.8Z" style="fill:#fff"/></svg>